<?xml version="1.0" standalone="no"?>
<!DOCTYPE svg PUBLIC "-//W3C//DTD SVG 20010904//EN"
 "http://www.w3.org/TR/2001/REC-SVG-20010904/DTD/svg10.dtd">
<svg version="1.0" xmlns="http://www.w3.org/2000/svg"
 width="102.000000pt" height="51.000000pt" viewBox="0 0 1536.000000 1024.000000"
 preserveAspectRatio="xMidYMid meet">
<metadata>
Created by potrace 1.16, written by Peter Selinger 2001-2019
</metadata>
<g transform="translate(0.000000,1024.000000) scale(0.100000,-0.100000)"
fill="#660d0d" stroke="none">
<path d="M8213 9091 c-7 -11 -30 -52 -51 -93 -21 -40 -76 -144 -122 -231 -72
-137 -88 -160 -117 -172 -18 -8 -33 -18 -33 -24 0 -10 61 -25 148 -37 44 -6
52 -4 52 9 0 9 -13 23 -30 32 -16 9 -30 22 -30 30 0 23 43 105 55 105 18 0
207 -29 210 -32 2 -2 8 -27 14 -57 13 -61 5 -78 -37 -83 -15 -2 -28 -10 -30
-19 -2 -14 15 -18 110 -26 116 -11 155 -4 114 21 -40 24 -55 46 -66 103 -20
97 -110 475 -116 484 -10 17 -59 10 -71 -10z m62 -320 c6 -39 5 -42 -11 -38
-11 3 -48 9 -84 12 -36 4 -68 9 -72 12 -7 4 67 162 101 212 16 24 16 24 37
-65 12 -50 25 -110 29 -133z"/>
<path d="M6880 9070 c-36 -12 -68 -32 -92 -59 -34 -36 -38 -46 -38 -91 0 -105
42 -142 202 -175 93 -19 116 -27 135 -49 52 -60 13 -142 -78 -166 -71 -19
-109 -5 -139 53 -19 35 -30 47 -45 45 -16 -3 -19 -9 -17 -43 2 -22 7 -56 11
-75 6 -32 11 -35 51 -42 83 -14 210 19 264 70 58 54 70 126 35 198 -25 54 -73
77 -187 94 -127 19 -168 57 -148 137 9 34 62 63 116 63 53 0 82 -17 100 -60
13 -32 17 -34 39 -21 10 7 12 21 6 57 -12 80 -16 84 -93 84 -39 -1 -90 -9
-122 -20z"/>
<path d="M9008 8915 c-23 -16 -46 -45 -62 -80 -26 -53 -28 -55 -66 -55 -49 0
-55 -23 -10 -39 17 -5 30 -16 29 -23 0 -7 -21 -74 -47 -148 l-47 -135 -37 -3
c-36 -3 -60 -28 -35 -37 19 -8 221 -75 223 -75 1 0 4 7 7 15 4 9 -7 22 -33 36
-27 15 -40 30 -40 43 0 18 85 274 94 283 1 2 26 -4 56 -13 44 -13 54 -13 61
-2 15 22 11 26 -46 44 -36 12 -55 23 -55 33 0 28 47 118 65 124 58 23 115 -6
115 -59 0 -51 32 -47 53 8 20 49 13 62 -48 89 -59 27 -132 25 -177 -6z"/>
<path d="M6145 8863 c-100 -23 -193 -91 -230 -168 -25 -49 -27 -64 -23 -133 8
-134 75 -250 174 -298 78 -38 162 -32 262 20 76 41 146 101 138 120 -2 6 -19
46 -37 88 -32 75 -32 78 -15 97 10 11 16 27 13 35 -5 13 -23 7 -99 -29 -105
-50 -125 -75 -56 -72 l43 2 33 -68 c29 -58 32 -70 20 -84 -21 -26 -110 -63
-151 -63 -109 0 -206 107 -239 263 -13 62 -2 116 32 160 22 28 88 62 139 71
30 5 38 2 72 -34 36 -38 62 -49 72 -32 3 4 -5 34 -17 67 l-21 60 -45 2 c-25 0
-54 -1 -65 -4z"/>
<path d="M9370 8567 c0 -8 11 -24 25 -37 l25 -23 -66 -126 c-36 -69 -70 -130
-75 -136 -5 -5 -23 -9 -41 -10 -17 0 -33 -4 -35 -10 -4 -14 202 -120 216 -111
18 11 13 19 -24 44 -23 15 -35 30 -34 45 0 12 24 65 52 117 46 83 57 97 89
107 21 7 48 9 64 4 24 -6 30 -13 32 -43 2 -26 9 -37 23 -41 17 -4 24 3 40 36
10 23 19 47 19 54 0 36 -103 57 -164 33 -30 -11 -31 -9 -11 30 17 33 18 31
-55 59 -64 24 -80 26 -80 8z"/>
<path d="M5304 8390 c-56 -18 -127 -73 -159 -124 -27 -44 -30 -58 -30 -125 1
-64 5 -86 30 -135 63 -126 193 -215 295 -202 91 13 195 87 227 163 23 56 19
154 -10 216 -30 65 -105 149 -163 183 -49 29 -138 40 -190 24z m122 -95 c54
-31 136 -122 165 -181 29 -61 31 -124 3 -161 -78 -106 -191 -96 -308 27 -109
114 -134 225 -66 295 57 59 127 66 206 20z"/>
<path d="M7535 8359 c-158 -12 -310 -36 -465 -71 -74 -18 -136 -33 -138 -34
-2 -1 14 -32 34 -69 28 -51 45 -71 71 -81 19 -8 48 -28 65 -44 26 -25 39 -30
80 -30 84 0 125 -32 163 -127 22 -53 27 -59 68 -73 25 -8 53 -22 64 -31 10 -9
29 -20 43 -24 72 -22 251 -137 236 -152 -3 -3 -92 25 -197 62 -131 45 -203 66
-226 63 -32 -4 -33 -3 -43 47 -19 90 -91 155 -172 155 -19 0 -42 6 -53 14 -23
15 -74 32 -127 41 -31 5 -38 10 -38 28 0 65 -67 177 -107 177 -35 0 -474 -188
-502 -215 -11 -11 -6 -17 32 -40 43 -25 94 -74 114 -109 5 -10 33 -19 74 -25
77 -11 120 -30 169 -76 26 -24 48 -35 85 -40 111 -15 191 -80 219 -176 9 -29
16 -58 16 -65 0 -6 24 -23 54 -38 52 -25 89 -66 116 -127 9 -20 28 -31 82 -48
54 -18 81 -34 115 -68 25 -24 43 -46 41 -48 -2 -3 -33 7 -68 22 -36 14 -102
33 -146 42 l-81 16 -22 47 c-20 43 -29 51 -96 84 -77 36 -95 55 -95 96 -1 39
-36 104 -71 129 -28 19 -47 24 -101 24 l-67 1 -30 42 c-46 62 -99 86 -183 80
l-68 -5 -21 46 c-31 71 -71 106 -150 131 l-68 22 -38 -23 c-234 -141 -445
-325 -768 -668 l-60 -63 75 5 74 5 56 61 55 62 97 -6 97 -5 78 91 78 91 89 -6
c49 -3 122 -6 162 -6 l73 0 3 -77 3 -76 102 -27 c57 -14 105 -28 107 -31 3 -2
9 -60 15 -129 l11 -125 43 -38 c92 -85 252 -159 516 -239 l140 -43 -5 -145
c-7 -194 -6 -198 80 -220 73 -18 85 -29 87 -75 3 -86 13 -80 56 31 22 60 60
158 83 217 22 60 39 114 37 120 -2 6 -56 -39 -120 -101 -65 -61 -136 -121
-159 -133 l-41 -21 7 127 c4 70 10 133 12 140 3 7 36 15 81 19 49 4 96 15 131
31 30 14 72 28 93 31 35 6 40 11 68 70 l30 64 139 0 c77 0 160 3 185 6 43 6
48 10 62 48 28 72 30 73 166 91 81 10 128 21 135 30 6 8 22 63 35 121 18 85
27 108 44 115 16 6 197 29 235 29 4 0 11 19 15 43 3 23 11 67 17 98 l10 57 49
6 c28 4 84 26 133 51 l85 45 224 0 c256 0 228 9 302 -103 l40 -62 132 -3 131
-3 33 -54 33 -54 125 -3 124 -3 47 -60 c45 -59 48 -60 99 -63 l53 -3 -63 77
c-251 307 -571 570 -932 764 -90 48 -103 52 -145 47 -109 -14 -182 -57 -182
-107 0 -21 -3 -22 -57 -14 -147 21 -204 -13 -228 -133 -10 -52 -15 -60 -48
-76 -32 -16 -44 -17 -87 -8 -142 30 -233 -8 -300 -124 -17 -30 -33 -55 -35
-55 -2 0 -25 10 -52 21 -60 27 -145 29 -191 5 -43 -22 -89 -87 -97 -137 -8
-46 -8 -46 -145 -84 -51 -14 -127 -43 -167 -64 -40 -21 -73 -35 -73 -31 0 14
105 107 153 134 26 16 68 33 93 40 42 11 47 15 68 67 34 84 70 125 142 160 57
28 71 31 126 26 35 -3 70 -8 80 -12 12 -5 25 7 51 47 75 112 159 146 309 125
56 -8 56 -8 62 20 4 15 20 52 36 80 40 71 95 102 193 112 73 7 75 8 125 58
l50 52 -56 22 c-84 31 -250 84 -309 98 -43 11 -56 10 -81 -3 -34 -17 -87 -75
-97 -105 -4 -15 -18 -21 -53 -26 -61 -8 -121 -34 -138 -60 -7 -11 -16 -38 -19
-60 l-7 -40 -103 -39 c-93 -34 -275 -86 -300 -85 -5 0 30 15 79 34 49 19 103
47 120 63 17 17 49 39 72 50 49 25 60 37 68 78 16 75 96 152 174 169 25 5 37
16 49 41 9 18 14 36 12 39 -8 7 -233 34 -384 45 -158 11 -260 11 -420 -1z"/>
<path d="M9904 8275 c-4 -10 2 -26 16 -40 27 -29 30 -22 -88 -179 l-74 -98
-39 5 c-63 8 -53 -15 36 -80 59 -44 86 -58 94 -50 7 7 5 20 -10 43 l-20 33 64
83 c105 139 159 220 150 228 -4 4 -34 22 -66 39 -49 28 -58 30 -63 16z"/>
<path d="M10287 7906 c-77 -28 -153 -112 -179 -198 -23 -77 32 -170 127 -214
60 -28 81 -30 93 -7 8 14 2 21 -37 38 -107 51 -130 120 -68 211 44 66 109 114
154 114 43 0 85 -24 106 -60 14 -23 14 -29 1 -55 -13 -25 -13 -30 1 -44 14
-14 19 -12 51 20 l36 36 -18 38 c-31 66 -139 136 -209 135 -11 -1 -37 -7 -58
-14z"/>
<path d="M4669 7833 c-18 -26 -43 -61 -56 -77 -33 -39 -16 -58 28 -32 l31 18
141 -96 c78 -52 153 -105 167 -116 l25 -20 -145 7 c-80 5 -201 8 -269 8 l-125
0 -44 -58 c-50 -65 -47 -91 6 -63 30 16 32 15 99 -30 194 -133 280 -194 300
-216 20 -21 21 -26 9 -50 -12 -23 -12 -29 0 -39 18 -15 17 -15 87 81 40 54 52
78 45 87 -8 10 -17 7 -41 -13 -16 -14 -36 -23 -44 -19 -14 5 -278 191 -333
235 l-25 20 30 -5 c17 -2 111 -9 210 -15 99 -5 219 -13 267 -16 l87 -5 15 30
16 30 -101 73 c-56 40 -151 109 -213 154 l-111 81 0 43 c0 24 -5 45 -12 47 -6
2 -26 -18 -44 -44z"/>
<path d="M8863 7454 c-19 -16 -29 -56 -68 -273 -40 -226 -51 -275 -57 -260 0
2 -4 110 -7 239 -6 226 -7 235 -26 235 -17 0 -22 -11 -32 -75 -19 -116 -91
-739 -107 -919 l-14 -162 -42 -69 c-23 -38 -63 -123 -90 -188 -63 -154 -151
-302 -215 -359 -85 -77 -302 -214 -400 -254 -27 -11 -8 -15 173 -35 226 -25
442 -57 545 -81 61 -15 69 -19 74 -44 4 -21 14 -31 37 -38 17 -5 99 -31 181
-57 83 -25 153 -49 158 -53 8 -8 -14 -211 -23 -211 -11 0 -140 69 -250 132
-126 73 -218 108 -366 138 -101 21 -156 24 -189 10 -24 -9 -20 -11 77 -34 179
-43 313 -96 496 -197 161 -89 188 -100 217 -95 63 12 76 32 81 121 2 44 10
109 17 145 l13 65 90 -3 c49 -1 108 -5 132 -8 24 -3 42 -1 42 4 0 12 -59 36
-164 66 -80 23 -81 24 -84 58 -2 18 1 43 5 54 8 21 8 21 98 3 111 -22 169 -23
184 -5 15 18 -21 45 -112 81 -37 15 -67 29 -67 31 0 3 53 2 118 -2 139 -8 421
4 401 17 -8 5 -25 9 -39 9 -13 0 -93 17 -177 37 -203 49 -185 58 101 49 134
-5 217 -4 211 2 -5 5 -50 19 -100 31 -167 43 -234 64 -229 73 4 6 70 7 163 3
155 -6 241 1 244 20 1 6 -58 30 -131 56 -111 37 -131 47 -119 57 11 9 49 11
149 6 98 -5 137 -4 142 5 9 14 -15 24 -136 53 -88 21 -97 25 -92 43 4 11 7 21
8 22 0 0 58 6 128 12 220 19 234 43 34 60 -65 6 -120 12 -123 14 -2 2 -1 11 2
19 5 12 35 16 153 20 124 5 160 10 230 33 45 15 82 31 82 34 0 4 -33 8 -72 10
-40 1 -98 6 -128 10 l-55 8 30 13 c17 7 93 21 171 31 77 10 171 26 210 35 78
20 80 19 -71 44 -93 15 -107 24 -76 50 18 16 38 20 89 20 36 0 106 5 156 12
l91 12 -60 13 c-143 31 -133 27 -106 42 13 7 84 18 157 24 74 6 134 14 134 18
0 7 -27 18 -110 45 -53 18 -54 18 -25 25 17 4 45 7 63 8 17 0 32 6 32 12 0 5
-30 67 -67 137 l-68 127 -8 -75 c-5 -41 -14 -91 -21 -110 -14 -43 -111 -126
-224 -193 -49 -29 -97 -67 -122 -97 -56 -67 -87 -84 -257 -140 -81 -27 -158
-57 -172 -68 -19 -14 -36 -49 -67 -139 -22 -66 -48 -132 -57 -146 -9 -14 -44
-42 -79 -63 -35 -20 -95 -67 -133 -104 -52 -50 -97 -81 -172 -118 -144 -73
-156 -93 -169 -279 -4 -56 -10 -107 -14 -113 -5 -9 -48 0 -159 31 l-151 43 0
74 0 74 125 -3 c69 -2 125 -1 125 3 0 6 -77 25 -197 49 -60 11 -63 13 -63 40
l0 29 122 0 c73 0 118 4 113 9 -6 5 -59 18 -120 28 -100 17 -110 21 -113 42
l-4 23 196 -8 c130 -4 196 -3 196 3 0 10 -156 47 -253 60 -86 11 -28 23 114
23 75 0 185 3 245 7 l109 7 -50 13 c-27 7 -101 20 -164 28 -207 28 -205 30 44
35 214 4 244 7 275 25 l35 19 -45 7 c-25 4 -64 8 -87 8 l-41 1 22 43 23 42
104 10 104 10 -59 13 c-33 6 -77 12 -98 12 -34 0 -38 3 -38 25 0 30 0 30 115
46 104 14 89 26 -34 28 -71 1 -73 2 -67 24 3 12 6 25 6 28 0 4 33 10 73 13 39
4 90 10 112 14 l40 6 -50 7 c-27 4 -78 8 -112 8 -56 1 -61 3 -56 21 6 22 23
26 153 35 47 3 103 11 125 17 39 10 39 11 15 20 -14 5 -76 12 -138 15 -108 6
-112 7 -96 24 21 24 75 39 139 40 28 0 68 3 90 8 36 6 37 8 15 13 -14 4 -62
10 -107 14 -46 3 -83 10 -83 14 0 4 5 21 11 39 l11 31 126 1 c218 2 228 21 21
42 -182 18 -158 40 59 53 145 9 148 19 12 40 l-45 7 44 18 c24 11 60 22 81 25
20 3 43 9 49 14 7 4 15 38 19 76 7 68 8 69 36 67 16 -1 31 -5 34 -8 11 -11
-19 -207 -49 -311 -35 -125 -45 -146 -106 -220 -25 -32 -40 -55 -32 -51 8 3
56 24 108 47 52 23 107 44 122 47 44 9 34 23 -16 23 -25 0 -45 2 -45 5 0 4 7
19 15 35 13 25 21 29 79 35 64 7 148 45 116 52 -8 2 -42 9 -74 16 -63 13 -74
23 -54 50 10 13 38 20 113 28 147 16 154 25 26 32 -62 3 -115 8 -117 10 -2 2
-1 18 2 35 7 34 6 34 211 48 51 3 91 9 88 14 -4 7 -107 22 -237 36 -56 5 -58
6 -58 35 l0 29 158 1 c171 1 276 11 232 22 -14 3 -81 13 -150 22 -69 9 -127
19 -129 21 -13 13 26 19 167 27 86 5 159 10 161 12 2 2 -13 24 -33 49 l-37 44
-37 -15 c-20 -8 -93 -28 -162 -43 -69 -16 -145 -36 -170 -45 -25 -9 -83 -25
-129 -36 -47 -11 -91 -25 -99 -31 -7 -7 -24 -33 -38 -60 -38 -75 -43 -77 -269
-83 -196 -6 -295 -18 -295 -36 0 -5 79 -9 178 -10 l177 0 -42 -19 c-55 -25
-74 -56 -83 -141 -14 -123 -53 -152 -236 -173 -65 -7 -102 -14 -81 -15 34 -1
37 -3 37 -30 0 -57 -31 -204 -53 -249 -21 -46 -23 -47 -69 -48 -41 -1 -53 -7
-99 -48 -29 -26 -83 -65 -120 -87 -151 -88 -159 -103 -170 -312 -4 -88 -10
-161 -12 -164 -5 -4 -323 37 -467 61 -74 12 -74 13 -45 25 17 7 79 18 140 24
l110 11 -80 16 -80 16 50 23 c28 12 78 25 113 28 34 3 62 10 62 14 0 5 -23 11
-50 15 -28 4 -53 10 -55 14 -6 9 95 48 146 56 21 4 39 10 39 13 0 4 -23 13
-51 20 -60 16 -56 20 48 56 l63 22 -43 17 c-23 9 -49 16 -57 17 -33 1 29 17
114 29 99 14 98 20 -9 46 -38 9 -72 19 -75 21 -15 14 40 23 139 23 66 0 111 4
105 9 -7 7 -86 27 -182 47 -13 2 -20 9 -17 14 4 6 79 10 183 10 115 0 173 3
166 10 -8 8 -149 35 -286 55 -101 14 -44 25 126 25 106 0 186 4 203 11 l28 11
-35 15 c-19 9 -80 20 -135 25 -199 19 -204 27 -14 21 113 -3 189 -2 192 4 5 8
-126 37 -271 59 -70 11 -33 28 71 32 l94 4 7 212 c3 116 9 259 13 318 l6 107
323 3 c177 2 326 6 330 11 4 4 4 10 0 15 -4 4 -151 8 -327 10 l-319 3 0 37 c0
20 5 106 12 190 l11 152 246 0 c228 0 288 6 267 27 -4 4 -120 9 -256 11 l-249
3 -3 71 -3 70 -22 -18z"/>
<path d="M10727 7439 c-35 -26 -21 -49 29 -49 41 0 100 -50 110 -92 5 -22 -1
-34 -34 -70 l-40 -42 -75 71 c-102 96 -144 104 -216 39 -34 -31 -43 -62 -30
-109 14 -51 54 -92 107 -107 35 -11 39 -15 26 -27 -21 -22 -17 -45 17 -86 41
-50 63 -50 54 2 l-6 39 109 75 c150 104 172 133 152 207 -13 46 -67 111 -122
146 -45 29 -46 29 -81 3z m-61 -198 c21 -15 49 -39 62 -53 l23 -25 -40 -26
c-53 -35 -100 -35 -140 -1 -47 39 -40 93 14 122 30 17 38 15 81 -17z"/>
<path d="M6045 7375 c18 -8 33 -24 38 -41 5 -16 11 -110 14 -210 l5 -181 -47
-6 c-26 -4 -130 -7 -230 -7 -208 0 -343 -9 -323 -21 7 -5 145 -9 306 -9 l292
0 0 -91 0 -92 -217 8 c-120 4 -214 3 -210 -2 5 -4 72 -11 150 -14 152 -7 209
-21 262 -64 l30 -25 -162 0 c-102 0 -163 -4 -163 -10 0 -5 8 -10 19 -10 33 0
285 -21 307 -25 17 -4 23 -17 33 -73 7 -38 18 -91 26 -118 l13 -49 1 55 c1 61
-16 234 -25 264 -5 15 -3 18 12 12 11 -5 51 -13 89 -19 39 -6 71 -11 72 -12 3
-2 30 -260 36 -336 l3 -57 -275 4 c-152 2 -269 1 -261 -1 8 -2 87 -14 175 -25
257 -32 375 -52 370 -60 -3 -5 -44 -11 -93 -15 -48 -3 -100 -9 -117 -13 -29
-6 -28 -6 15 -13 25 -4 110 -10 189 -14 79 -4 137 -11 130 -15 -12 -7 -267
-40 -305 -40 -8 0 -14 -4 -14 -10 0 -6 98 -10 273 -10 l272 0 32 -49 32 -49
-47 -6 c-39 -5 -488 -25 -571 -26 -16 0 -21 -4 -15 -9 17 -18 258 -33 465 -29
l205 3 23 -27 c15 -19 18 -28 9 -28 -25 0 -330 -49 -335 -53 -2 -3 81 -8 184
-11 103 -4 211 -12 238 -18 l50 -12 -105 -17 c-58 -9 -136 -20 -175 -24 -38
-3 -86 -9 -105 -12 l-35 -6 30 -7 c17 -4 120 -8 231 -9 149 -1 205 -4 218 -14
17 -12 13 -16 -40 -37 -33 -13 -62 -26 -67 -30 -4 -3 27 -12 69 -19 56 -9 82
-19 98 -36 21 -23 103 -52 114 -40 3 3 -4 47 -16 98 -11 50 -26 118 -33 149
l-12 57 -71 27 c-139 52 -132 47 -155 108 -12 32 -37 92 -57 136 -34 73 -38
79 -72 85 -111 19 -107 17 -120 103 -21 136 -27 149 -70 157 -20 3 -69 16
-109 27 -81 23 -75 11 -93 178 -17 164 -4 147 -121 156 l-101 7 7 211 c4 116
9 213 10 214 7 7 113 -28 122 -40 6 -7 15 -26 21 -43 8 -24 11 -25 11 -9 1 12
-2 41 -5 65 l-6 45 -108 29 c-119 32 -120 33 -120 111 0 47 -12 54 -85 53
l-40 -1 30 -13z m531 -1076 c11 -9 86 -139 80 -139 -9 0 -142 42 -174 55 -30
12 -41 22 -38 32 3 8 6 34 6 58 l0 44 56 -19 c31 -11 63 -25 70 -31z"/>
<path d="M9360 7173 c-236 -3 -289 -8 -240 -23 36 -11 850 -12 850 -1 0 5 -8
12 -17 16 -24 8 -303 13 -593 8z"/>
<path d="M8375 7138 c-59 -270 -144 -590 -205 -773 -19 -59 -19 -59 -14 -15 3
25 28 157 55 294 27 137 48 251 45 253 -2 2 -15 1 -28 -2 -21 -6 -30 -22 -61
-123 -46 -146 -170 -492 -175 -488 -1 2 36 137 83 299 47 163 85 298 85 301 0
3 -20 6 -45 6 -35 0 -48 -5 -59 -23 -20 -29 -227 -549 -296 -740 -29 -81 -54
-146 -56 -145 -4 4 94 529 121 653 14 60 25 113 25 117 0 14 -127 9 -137 -4
-6 -7 -20 -56 -33 -108 -36 -148 -137 -482 -139 -459 -2 18 103 479 125 552 8
27 -33 21 -52 -7 -8 -14 -49 -102 -90 -197 -40 -94 -101 -223 -134 -286 -46
-87 -60 -125 -60 -156 0 -23 4 -47 8 -54 4 -7 44 -15 91 -19 l82 -7 -6 -146
c-6 -136 -5 -148 14 -178 11 -18 26 -33 33 -33 7 0 63 43 123 96 61 52 148
121 195 153 107 73 154 125 196 216 37 79 49 88 162 115 31 7 56 20 62 30 12
23 53 254 85 479 14 96 26 175 27 176 2 1 39 8 83 14 117 17 123 35 9 26 l-91
-7 16 89 16 88 40 9 c83 17 81 25 -7 25 -83 1 -88 0 -93 -21z"/>
<path d="M5680 7103 c-120 -8 -357 -37 -370 -45 -9 -6 58 -7 180 -3 207 6 396
21 414 32 27 17 -89 26 -224 16z"/>
<path d="M4172 6978 c-48 -109 -56 -139 -41 -149 10 -6 21 -1 37 17 l23 26
142 -52 c78 -29 161 -62 184 -74 l43 -21 -251 -45 c-283 -51 -266 -42 -299
-149 -16 -53 -16 -62 -3 -73 12 -10 18 -9 29 6 7 10 15 24 17 30 4 11 391
-114 434 -140 18 -11 21 -20 16 -47 -4 -25 -1 -36 11 -40 17 -7 27 6 46 68 7
22 21 56 31 77 15 30 16 38 5 47 -10 9 -17 6 -30 -14 -9 -14 -24 -25 -33 -25
-9 0 -104 33 -210 72 -147 55 -188 74 -171 79 13 4 139 26 282 50 242 41 259
45 267 67 11 28 12 72 2 73 -55 5 -104 20 -257 81 -100 39 -190 77 -201 85
-14 9 -20 25 -20 50 0 56 -28 56 -53 1z"/>
<path d="M9630 6990 c-13 -9 -13 -11 0 -20 16 -12 461 -5 535 8 35 6 29 7 -45
13 -133 11 -473 10 -490 -1z"/>
<path d="M5052 6802 c-38 -82 -82 -195 -78 -199 2 -2 43 -8 92 -14 63 -7 94
-15 107 -28 18 -18 16 -19 -70 -25 -130 -10 -183 -17 -183 -25 0 -8 144 -21
231 -21 38 0 51 -4 59 -19 14 -27 15 -26 -33 -28 -84 -5 -217 -26 -217 -34 0
-5 62 -9 139 -9 135 0 139 -1 154 -24 16 -23 15 -24 -15 -30 -17 -3 -52 -6
-78 -6 -73 0 -170 -12 -165 -20 3 -5 33 -11 67 -15 84 -9 232 -41 260 -56 12
-6 30 -19 40 -29 18 -17 16 -18 -49 -24 -103 -10 -107 -22 -11 -35 121 -18
163 -30 176 -52 11 -18 9 -19 -30 -20 -24 0 -63 -4 -88 -8 l-45 -7 75 -8 c71
-8 175 -27 230 -43 l25 -7 -30 -7 c-16 -4 -60 -7 -97 -8 -38 0 -68 -5 -68 -10
0 -5 33 -12 73 -15 312 -25 329 -27 316 -41 -5 -4 -238 -35 -266 -35 -7 0 -13
-4 -13 -8 0 -18 81 -31 230 -38 144 -6 157 -8 172 -29 l17 -22 -122 -28 c-67
-15 -128 -31 -136 -35 -24 -13 133 -23 224 -16 59 5 85 3 90 -5 10 -16 -4 -23
-127 -65 -156 -54 -144 -64 49 -43 97 10 153 3 153 -20 0 -5 -34 -20 -75 -32
-53 -17 -70 -26 -58 -31 10 -3 105 -7 212 -7 107 -1 192 -3 189 -6 -3 -3 -45
-17 -94 -31 -94 -28 -177 -65 -157 -71 6 -2 96 3 198 11 197 17 327 20 338 9
4 -3 -64 -24 -151 -45 -86 -22 -161 -43 -166 -48 -4 -4 101 -6 234 -3 261 7
267 5 187 -41 -44 -25 -144 -50 -375 -91 -75 -13 -248 -44 -384 -69 -269 -49
-631 -107 -828 -131 -156 -20 -184 -25 -173 -35 14 -12 213 -87 289 -108 39
-11 82 -18 95 -16 13 2 110 19 214 38 266 49 512 88 850 136 495 70 573 88
814 189 l141 59 -6 -27 c-12 -47 -23 -60 -104 -108 -43 -26 -78 -49 -76 -50 2
-2 37 2 80 7 83 12 91 10 99 -20 5 -18 -8 -28 -96 -70 l-102 -48 45 -1 c25 0
79 8 120 19 79 21 150 26 150 11 0 -5 -21 -23 -47 -40 -27 -17 -45 -31 -42
-31 3 0 42 14 87 30 100 36 114 37 110 8 -2 -17 -25 -36 -80 -68 -43 -25 -78
-48 -78 -52 0 -9 61 0 127 18 97 27 107 14 41 -54 l-43 -44 35 7 c19 4 53 15
76 25 l41 17 -34 105 -34 105 -86 21 c-139 34 -143 41 -143 208 0 110 7 102
-130 133 -330 73 -552 124 -600 137 -213 59 -537 159 -547 168 -6 6 -50 86
-98 178 l-86 166 -152 36 c-84 20 -162 36 -174 36 -50 0 -74 20 -138 119 -58
90 -69 101 -106 112 -23 7 -47 22 -54 33 -12 19 -44 151 -61 248 -7 40 -8 41
-116 53 -31 3 -61 12 -66 18 -5 7 -13 51 -17 99 -4 49 -10 90 -14 92 -4 3 -22
-25 -39 -62z"/>
<path d="M6472 6848 c3 -7 19 -23 38 -35 l33 -23 -32 0 c-54 0 -34 -17 29 -23
33 -4 72 -10 86 -13 39 -10 9 -24 -53 -24 -88 0 -68 -17 30 -24 51 -4 112 -10
137 -14 l45 -7 -55 -6 c-30 -4 -88 -7 -127 -8 -42 -1 -73 -5 -73 -11 0 -6 30
-10 69 -10 86 0 270 -18 289 -29 8 -5 -68 -11 -169 -13 -186 -6 -223 -11 -216
-32 2 -7 57 -13 160 -16 85 -3 159 -8 163 -12 4 -5 -10 -8 -32 -8 -58 0 -237
-29 -248 -40 -6 -6 77 -7 227 -3 l237 6 0 -46 0 -47 -97 -1 c-54 0 -116 -3
-138 -7 -37 -7 -38 -8 -15 -15 14 -4 76 -10 138 -14 l112 -6 0 -27 c0 -36 -12
-40 -123 -41 -107 0 -92 -13 27 -23 77 -6 95 -14 96 -43 0 -10 -26 -13 -97
-13 -54 0 -105 -5 -113 -10 -12 -7 -8 -10 15 -11 17 0 83 -4 147 -8 106 -6
120 -9 144 -31 l26 -25 -94 -6 c-166 -10 -152 -36 20 -38 90 -1 93 -2 102 -27
20 -52 17 -54 -81 -54 -57 0 -88 -4 -84 -10 3 -5 41 -10 84 -10 63 0 81 -4 94
-18 25 -28 21 -32 -27 -32 -63 0 -136 -11 -136 -21 0 -12 35 -19 136 -28 83
-7 86 -8 47 -16 -24 -4 -43 -11 -43 -15 0 -4 30 -13 67 -20 l67 -13 -33 -28
c-38 -31 -35 -44 15 -65 19 -8 34 -21 34 -30 0 -18 33 -82 57 -109 10 -11 36
-34 58 -50 74 -54 95 -77 95 -107 0 -27 -2 -28 -47 -28 l-48 -1 45 -16 c25 -8
47 -17 50 -20 3 -2 7 -61 10 -129 4 -88 10 -128 19 -133 7 -5 50 -16 94 -25
89 -18 113 -33 123 -80 10 -51 65 -220 75 -232 7 -8 -10 -16 -56 -28 -110 -28
-254 -83 -324 -125 -88 -53 -130 -70 -219 -87 -42 -8 -78 -17 -81 -19 -2 -3
49 -5 114 -5 l118 0 76 42 c69 38 74 43 51 49 -20 6 -21 7 -5 8 26 1 258 65
352 97 84 28 94 29 87 9 -10 -26 -82 -61 -204 -100 -63 -20 -149 -56 -191 -79
-133 -75 -248 -115 -393 -137 -146 -22 -206 -36 -206 -47 0 -5 19 -18 43 -29
l42 -22 -55 -1 c-117 -3 -158 -14 -190 -51 -16 -19 -29 -37 -30 -40 0 -3 35
-20 78 -37 l77 -31 -116 0 c-140 -1 -191 -16 -257 -76 l-47 -43 65 -6 c36 -3
196 -8 355 -12 160 -3 322 -9 360 -13 l70 -6 -58 -20 c-57 -19 -60 -19 -140 0
-62 14 -145 20 -347 26 -146 4 -274 10 -286 14 -17 5 -28 -2 -53 -34 -18 -23
-70 -68 -116 -101 l-83 -61 53 -137 c69 -177 152 -382 157 -387 2 -2 101 -29
220 -59 119 -30 230 -62 247 -70 24 -13 48 -51 122 -196 118 -231 139 -255
269 -310 92 -39 104 -47 138 -95 20 -28 57 -88 82 -133 l45 -82 186 0 c103 0
233 5 290 11 123 12 130 17 219 151 58 88 215 386 208 394 -2 2 -37 17 -77 33
-39 17 -121 60 -182 96 -92 56 -121 68 -179 77 -38 6 -67 14 -64 19 2 4 -19
20 -48 35 -60 30 -75 45 -159 166 -34 48 -77 102 -97 119 -46 40 -207 119
-246 120 -30 1 -30 1 -6 8 25 7 25 7 -15 33 -33 22 -57 28 -132 34 l-92 7 68
32 68 33 7 78 c14 155 37 206 125 266 27 18 38 37 56 96 23 71 49 115 105 172
20 21 27 35 23 51 -3 12 -2 20 3 18 5 -3 20 -10 34 -17 22 -11 38 -8 120 22
l95 34 5 48 5 49 140 46 c77 26 283 82 457 125 175 44 318 81 318 84 0 8 -195
113 -305 165 -76 36 -124 52 -200 64 -55 10 -93 20 -85 23 21 8 -21 24 -102
38 -34 7 -68 15 -73 20 -12 10 -226 52 -232 46 -6 -6 33 -80 51 -95 8 -7 27
-16 43 -21 25 -7 25 -8 5 -9 -48 -2 -86 24 -116 80 -16 30 -30 55 -31 56 -1 2
-46 12 -100 23 -54 11 -100 22 -102 23 -1 2 2 52 7 113 6 64 6 132 1 164 -8
51 -14 60 -74 115 -36 33 -70 70 -76 82 -6 12 -11 75 -11 146 l0 124 -79 7
-79 7 -7 104 c-12 168 -10 164 -89 196 -38 15 -73 34 -77 40 -12 20 -22 176
-16 245 4 43 2 65 -6 71 -7 5 -55 24 -107 43 -139 48 -295 112 -399 164 -99
50 -105 52 -99 34z m628 -2908 c41 -17 89 -41 105 -55 l30 -24 -240 -1 -240 0
75 33 c41 18 93 43 115 55 53 28 67 27 155 -8z m-463 -161 c15 -7 75 -27 133
-45 l105 -33 -156 -1 c-86 0 -177 3 -203 6 l-47 7 63 38 c71 44 67 43 105 28z
m441 -160 c37 -23 98 -59 137 -80 l70 -39 -100 0 c-103 0 -315 14 -395 26
l-45 7 125 62 c69 34 129 62 134 63 5 1 38 -17 74 -39z m476 -246 c55 -31 121
-65 146 -75 l45 -19 -265 6 c-146 3 -285 9 -310 13 l-45 8 40 13 c22 8 87 36
145 62 58 27 114 49 124 49 11 0 65 -26 120 -57z m16 -210 c14 -10 59 -37 100
-60 l75 -43 -95 1 c-52 1 -142 4 -200 8 l-104 6 89 52 c50 28 95 52 100 52 6
1 22 -7 35 -16z m473 -190 l92 -58 -100 -3 c-55 -2 -147 0 -205 3 l-105 7 105
54 c58 29 108 53 113 53 4 1 49 -25 100 -56z"/>
<path d="M11124 6847 c-3 -8 -4 -27 -2 -43 3 -28 0 -29 -102 -66 -172 -62
-187 -65 -215 -38 -41 38 -44 15 -11 -80 31 -92 47 -107 56 -54 5 27 12 31
115 66 140 48 167 48 210 5 45 -45 53 -81 28 -115 -15 -20 -47 -36 -129 -64
-124 -41 -150 -45 -175 -22 -35 32 -38 4 -7 -86 32 -97 55 -117 60 -53 l3 36
133 43 c146 46 187 73 198 130 13 69 -30 147 -97 174 l-31 13 29 23 28 23 -31
58 c-33 60 -50 74 -60 50z"/>
<path d="M8496 6767 c-24 -95 -176 -559 -188 -574 -5 -6 -40 -19 -79 -28 l-70
-17 -38 -82 c-43 -91 -78 -129 -191 -205 -103 -70 -298 -232 -305 -254 -4 -9
1 -39 10 -66 14 -43 19 -49 50 -54 43 -7 215 3 215 13 0 7 -138 39 -175 41
-43 2 65 27 148 34 48 4 87 11 87 15 0 4 -24 10 -52 14 -29 3 -71 11 -93 18
l-40 11 40 13 c22 7 72 13 110 14 62 2 147 15 120 19 -5 1 -50 10 -100 20
l-90 19 38 16 c20 9 83 20 140 24 l102 8 -80 14 -80 14 41 18 c23 10 81 21
130 24 49 4 95 10 102 14 12 6 -48 22 -123 32 -33 5 44 47 99 54 61 9 67 21
14 29 -57 10 -59 12 -46 40 8 19 21 25 59 29 27 3 72 9 99 12 82 10 55 33 -40
35 l-45 1 63 15 c57 13 66 19 101 66 21 29 43 61 49 72 5 11 13 90 16 175 4
85 11 215 17 289 5 74 8 135 6 137 -1 2 -11 -29 -21 -69z"/>
<path d="M5170 6760 l0 -37 79 -7 c44 -4 84 -13 89 -19 6 -7 16 -37 24 -67
l13 -55 60 -15 c83 -22 95 -28 60 -29 -51 -2 -105 -13 -100 -21 3 -4 43 -13
90 -20 52 -7 92 -19 102 -28 15 -15 13 -17 -23 -24 -112 -21 -145 -31 -137
-39 4 -4 46 -13 91 -18 46 -5 86 -11 88 -14 3 -3 21 -56 39 -118 19 -62 40
-118 47 -125 7 -8 28 -17 47 -20 l34 -7 -7 39 c-15 82 -89 390 -97 405 -10 19
-102 46 -187 55 -35 4 -66 12 -70 18 -4 6 -11 45 -17 86 l-11 75 -64 7 c-36 4
-84 9 -107 11 l-43 5 0 -38z"/>
<path d="M4781 6197 c-18 -56 -48 -207 -41 -207 3 0 44 10 91 21 77 20 91 21
164 9 69 -10 220 -58 211 -67 -1 -1 -75 -9 -165 -17 -164 -14 -173 -17 -231
-66 l-25 -21 260 5 c222 5 263 4 279 -9 11 -8 18 -16 15 -18 -2 -2 -67 -14
-144 -26 -230 -37 -231 -38 -292 -93 l-55 -49 34 5 c41 7 263 33 427 50 117
12 125 12 143 -6 10 -10 18 -22 18 -26 0 -4 -81 -27 -181 -51 -198 -48 -257
-72 -309 -127 -34 -34 -34 -35 -10 -30 57 12 144 27 306 51 170 26 253 29 256
10 1 -5 -68 -35 -154 -66 -163 -59 -253 -102 -303 -145 l-30 -25 35 5 c19 4
84 15 145 26 178 30 462 63 482 55 13 -5 -7 -14 -72 -34 -137 -41 -284 -98
-343 -132 -30 -17 -52 -32 -50 -34 2 -2 24 1 48 6 116 26 517 89 568 89 101 0
89 -14 -61 -64 -78 -27 -146 -53 -152 -58 -12 -11 49 -5 290 28 153 20 307 53
322 67 2 2 -34 9 -80 15 -75 10 -252 63 -307 92 -12 6 -46 33 -75 60 -35 31
-70 53 -97 60 -24 6 -48 12 -53 14 -11 4 -83 165 -136 302 -17 43 -35 85 -42
92 -11 14 -330 177 -554 282 l-122 58 -10 -31z"/>
<path d="M10690 6210 c-19 -10 -116 -50 -215 -90 -392 -158 -407 -170 -491
-411 -95 -273 -142 -327 -334 -382 -99 -29 -97 -25 -99 -176 l-1 -93 -37 7
c-21 4 -42 12 -46 18 -4 7 -5 49 -2 95 7 82 1 98 -25 67 -6 -8 -18 -55 -26
-106 -19 -128 -18 -126 -69 -133 -43 -7 -73 -26 -41 -26 18 0 20 -23 10 -107
-6 -49 -9 -53 -33 -53 -48 0 -54 11 -49 89 4 70 -1 81 -29 63 -6 -4 -15 -31
-19 -60 -7 -56 -10 -58 -67 -36 -10 3 -17 -3 -21 -19 -9 -36 -43 -75 -84 -96
-21 -10 -165 -51 -322 -90 -157 -39 -361 -93 -455 -121 -93 -28 -192 -56 -218
-61 -56 -13 -57 -10 10 -116 52 -85 67 -96 143 -113 33 -8 71 -25 95 -45 77
-62 96 -67 515 -141 112 -19 206 -37 208 -39 2 -2 -13 -16 -32 -32 -20 -15
-36 -30 -36 -34 0 -3 35 -11 78 -18 42 -7 162 -32 267 -56 150 -35 192 -41
204 -32 16 13 76 137 86 179 6 25 4 27 -47 36 -560 107 -955 209 -1075 278
-48 28 -49 30 -28 81 28 67 34 69 81 22 41 -40 44 -41 198 -72 86 -16 159 -28
162 -24 11 11 -35 64 -102 118 -59 48 -63 54 -43 57 13 2 56 -1 96 -8 77 -12
151 -16 159 -7 3 3 1 14 -5 25 -10 19 -6 22 44 41 31 12 80 21 110 21 66 0
297 -39 504 -84 86 -19 227 -47 313 -61 134 -23 166 -25 210 -15 66 13 89 26
62 33 -103 30 -393 92 -515 110 -176 26 -167 19 -149 127 l12 69 46 -20 c108
-47 379 -100 577 -114 120 -9 103 5 -55 44 -69 17 -208 57 -310 89 -102 33
-200 63 -218 67 -18 4 -32 9 -30 11 5 5 358 -41 499 -65 139 -24 270 -38 409
-45 146 -7 105 6 -141 45 l-207 34 -6 50 c-11 91 -7 205 7 205 29 0 374 31
396 36 13 3 22 7 19 9 -11 11 -256 47 -443 65 -115 11 -217 23 -226 26 -14 4
-18 -10 -24 -99 l-7 -103 -33 4 c-41 5 -45 16 -45 146 l0 98 158 -7 c86 -3
209 -13 272 -21 285 -37 352 -44 450 -49 l105 -5 -75 25 c-141 48 -455 133
-527 144 -39 6 -99 11 -133 11 l-61 0 16 30 16 30 124 0 c91 0 170 -8 297 -29
317 -54 339 -52 196 18 -132 65 -268 91 -476 91 -115 0 -108 -5 -81 68 11 28
26 28 235 3 255 -31 294 -34 294 -23 0 14 -166 97 -221 110 -26 7 -97 16 -159
22 -62 5 -115 12 -118 14 -2 3 1 20 8 37 13 30 15 31 59 25 85 -12 421 -20
421 -10 0 14 -125 61 -243 90 -134 34 -142 39 -95 58 29 12 76 16 210 16 170
0 218 5 218 20 0 10 -41 26 -109 43 -30 8 -50 16 -45 19 5 3 71 20 147 39 102
25 137 37 137 49 0 17 -33 127 -40 134 -3 2 -21 -4 -40 -14z m-1012 -930 c9 0
12 -30 12 -115 l0 -115 -40 0 -40 0 0 113 c0 63 3 117 7 121 4 4 17 5 28 2 11
-3 26 -6 33 -6z"/>
<path d="M4127 5714 c-54 -29 -62 -100 -18 -145 73 -73 190 6 151 102 -13 31
-55 59 -87 59 -10 -1 -31 -8 -46 -16z"/>
<path d="M11307 5689 c-9 -5 -24 -24 -33 -40 -29 -57 15 -129 78 -129 57 0 98
38 98 91 0 28 -26 75 -45 83 -25 9 -78 7 -98 -5z"/>
<path d="M7635 5260 c-12 -24 -13 -31 -3 -35 57 -19 343 -65 406 -65 53 0 72
-3 62 -10 -11 -7 -8 -9 15 -9 44 1 84 15 65 22 -25 9 -189 44 -286 61 -50 9
-124 27 -164 41 -40 14 -75 25 -76 25 -2 0 -11 -14 -19 -30z"/>
<path d="M4650 5238 c0 -64 8 -74 101 -122 73 -39 96 -47 131 -44 l43 3 -49
35 c-28 19 -88 63 -134 98 -46 34 -85 62 -88 62 -2 0 -4 -15 -4 -32z"/>
<path d="M4706 5023 c15 -104 24 -115 183 -221 185 -122 269 -206 383 -378 48
-72 98 -138 111 -147 14 -9 80 -39 148 -67 68 -29 139 -63 158 -77 33 -25 33
-27 27 -84 -15 -132 35 -197 210 -272 62 -27 123 -61 137 -75 15 -17 48 -92
86 -197 118 -331 134 -368 161 -376 14 -4 111 -30 215 -58 205 -54 303 -84
335 -101 11 -6 50 -57 86 -113 91 -140 132 -190 283 -352 l132 -140 67 -11
c37 -7 69 -10 71 -8 6 6 -86 147 -112 172 -13 12 -73 48 -133 80 -131 70 -146
87 -258 302 -88 170 -100 182 -224 224 -39 14 -134 39 -209 56 -96 21 -143 37
-154 50 -9 11 -47 97 -84 192 -102 260 -146 349 -186 375 -79 50 -172 104
-226 132 -32 16 -67 39 -77 50 -18 20 -19 26 -7 79 25 110 25 145 3 165 -11
10 -118 61 -238 113 -119 51 -226 102 -236 111 -27 24 -40 51 -49 97 -9 51 6
93 42 111 51 27 54 22 55 -70 0 -95 7 -108 62 -120 l33 -7 -3 144 -3 143 -25
3 c-205 23 -468 124 -665 257 -54 36 -100 65 -102 65 -2 0 -1 -21 3 -47z"/>
<path d="M6890 4944 c-74 -18 -243 -57 -375 -85 -263 -55 -316 -76 -170 -65
289 22 654 105 727 166 l23 19 -35 0 c-19 0 -96 -16 -170 -35z"/>
<path d="M7185 4878 c-65 -12 -225 -57 -245 -69 -21 -12 86 -11 189 2 105 13
151 31 151 58 0 24 -13 25 -95 9z"/>
<path d="M7295 4774 c-33 -8 -96 -27 -140 -41 -103 -35 -74 -41 89 -18 135 19
227 44 234 63 5 17 -105 15 -183 -4z"/>
<path d="M5714 4745 c3 -8 9 -21 12 -29 4 -10 -6 -16 -38 -21 -82 -12 -148
-35 -148 -51 0 -12 11 -14 68 -8 173 15 452 81 452 106 0 5 -10 6 -22 4 -13
-3 -63 -11 -112 -17 -88 -12 -90 -12 -104 9 -12 18 -24 22 -64 22 -41 0 -49
-3 -44 -15z"/>
<path d="M6360 4664 c-214 -40 -420 -86 -420 -94 0 -13 122 -19 209 -10 136
14 398 90 417 121 9 15 -75 8 -206 -17z"/>
<path d="M10729 4614 c-32 -39 -107 -76 -264 -133 -761 -272 -736 -263 -766
-297 -9 -11 -28 -59 -43 -109 -41 -135 -97 -244 -153 -298 -68 -66 -74 -70
-252 -147 -89 -38 -213 -97 -275 -130 -125 -66 -119 -60 -157 -185 -14 -49
-57 -135 -108 -218 -38 -63 -174 -309 -274 -497 -31 -58 -72 -130 -91 -160
-19 -30 -33 -56 -31 -58 2 -2 16 3 32 12 30 16 86 93 221 308 48 76 132 195
187 265 70 89 118 163 160 247 33 66 71 128 85 138 35 25 373 173 624 273 116
46 225 95 243 109 18 15 57 59 87 100 61 82 64 85 211 180 58 37 105 70 102
72 -6 6 -174 -64 -258 -107 -41 -22 -102 -61 -135 -87 -81 -65 -148 -110 -189
-128 l-34 -14 42 78 c23 42 62 128 88 191 l46 115 144 54 c79 29 234 89 344
132 211 83 304 115 361 126 36 7 36 6 73 147 10 39 2 48 -20 21z"/>
<path d="M9090 4506 c0 -2 38 -18 84 -35 118 -42 484 -112 616 -117 103 -4
104 -4 65 11 -62 24 -388 102 -519 125 -105 18 -246 27 -246 16z"/>
<path d="M7130 4484 c-192 -18 -234 -27 -319 -70 -47 -24 -112 -65 -144 -91
-32 -26 -89 -64 -125 -84 -50 -27 -83 -55 -129 -110 -34 -41 -62 -78 -62 -84
-1 -10 -25 -27 -155 -111 l-59 -38 23 -18 c30 -24 48 -23 95 8 43 29 145 124
145 135 0 4 -8 10 -17 12 -10 3 -4 5 12 6 39 1 139 96 116 110 -10 7 -8 11 10
16 12 4 43 20 68 35 26 15 63 33 83 39 22 8 50 28 67 50 45 57 133 98 269 127
143 30 274 63 280 69 5 5 -96 4 -158 -1z"/>
<path d="M8920 4403 c0 -6 10 -25 23 -44 34 -50 123 -81 327 -113 l35 -6 -30
26 c-29 24 -30 25 -5 20 61 -13 244 -36 282 -36 55 0 41 11 -52 45 -180 64
-580 139 -580 108z"/>
<path d="M7614 4172 c-4 -9 -12 -52 -18 -96 l-11 -79 -60 -21 c-52 -18 -63
-26 -81 -64 -31 -59 -41 -170 -20 -210 31 -60 165 -134 271 -151 61 -9 87 -8
74 3 -2 2 -55 29 -118 61 -119 61 -191 118 -191 153 0 11 -6 23 -12 25 -9 4
-9 6 -1 6 6 1 17 17 23 36 7 22 23 41 40 50 51 26 84 19 168 -39 53 -36 110
-64 175 -85 95 -32 97 -33 141 -95 98 -137 338 -271 628 -350 94 -26 101 -24
113 26 6 25 4 27 -37 38 -96 25 -328 101 -382 126 l-58 26 8 112 c4 61 8 119
8 129 0 9 1 17 1 17 0 0 27 -9 59 -20 31 -12 150 -39 264 -61 114 -22 248 -49
298 -60 50 -11 101 -21 112 -22 20 -1 211 83 211 93 1 3 -69 22 -154 43 -85
21 -207 52 -270 69 -113 30 -115 31 -109 57 4 14 7 30 8 34 0 4 -66 25 -149
47 -169 43 -211 57 -308 102 -82 38 -86 35 -88 -62 -1 -36 -4 -93 -8 -128 l-6
-62 -55 36 c-72 48 -106 80 -120 114 -9 21 -33 37 -108 71 -53 24 -121 64
-152 89 -73 61 -77 63 -86 42z"/>
<path d="M9885 3580 c-103 -72 -169 -101 -375 -164 -102 -32 -199 -67 -216
-79 -17 -12 -145 -139 -285 -283 -228 -234 -262 -273 -328 -380 -41 -65 -90
-143 -109 -172 -19 -29 -33 -54 -31 -56 2 -2 37 6 77 17 l72 20 78 151 c72
141 83 157 172 246 52 53 148 142 212 198 236 207 298 242 422 242 70 0 96 14
208 112 70 62 196 199 182 197 -5 0 -40 -22 -79 -49z"/>
<path d="M7710 3520 c-10 -7 -11 -10 -2 -10 24 0 104 -84 142 -150 l39 -67 78
-12 c43 -7 85 -15 93 -17 15 -3 12 -1 -54 41 -17 11 -55 56 -83 100 -67 103
-95 125 -153 125 -25 0 -52 -5 -60 -10z"/>
<path d="M7900 3272 c0 -15 44 -51 80 -65 19 -8 62 -20 95 -27 68 -14 123 -40
224 -105 68 -44 213 -115 235 -115 12 0 53 67 45 74 -2 1 -44 15 -94 31 -115
35 -147 52 -218 114 -34 30 -70 52 -90 55 -17 3 -85 15 -149 26 -135 23 -128
22 -128 12z"/>
<path d="M9373 3086 c-159 -83 -211 -134 -355 -346 -39 -58 -85 -122 -101
-143 -16 -21 -27 -41 -24 -44 4 -3 40 10 80 30 80 38 76 33 218 225 50 68 134
168 186 223 53 54 92 99 87 99 -5 0 -46 -20 -91 -44z"/>
<path d="M5792 3067 c10 -7 54 -32 99 -57 62 -34 91 -57 125 -101 24 -31 57
-69 75 -83 42 -35 119 -80 126 -73 7 8 -96 154 -146 205 -58 59 -80 71 -183
98 -103 27 -121 29 -96 11z"/>
<path d="M6170 3001 c0 -18 95 -114 175 -176 45 -35 116 -104 158 -154 42 -50
92 -98 110 -107 17 -10 102 -41 187 -69 85 -29 164 -56 175 -60 29 -11 -207
213 -279 263 -33 24 -95 62 -136 84 -64 35 -297 171 -367 215 -13 7 -23 9 -23
4z"/>
<path d="M5935 2505 c-24 -42 -13 -56 19 -25 18 16 32 21 48 16 55 -14 55 -16
-13 -153 -60 -121 -66 -128 -91 -125 -46 5 -32 -12 38 -46 63 -31 100 -36 61
-8 -9 7 -17 21 -17 30 0 18 117 256 126 256 3 0 19 -7 35 -16 27 -13 30 -20
27 -51 -1 -20 2 -38 8 -40 9 -3 44 56 44 76 0 8 -239 121 -257 121 -5 0 -18
-16 -28 -35z"/>
<path d="M9550 2439 c-14 -6 -37 -22 -52 -36 -36 -35 -37 -75 -2 -102 22 -17
35 -20 83 -15 43 5 59 3 69 -9 17 -20 5 -45 -30 -63 -26 -14 -32 -14 -53 0
-12 8 -25 12 -28 9 -11 -11 17 -53 35 -53 37 0 98 40 115 75 16 34 16 36 -4
63 -19 25 -26 27 -94 27 -73 0 -74 0 -77 27 -4 35 27 52 79 44 38 -6 39 -6 27
19 -12 27 -28 30 -68 14z"/>
<path d="M8985 2297 c-38 -21 -39 -22 -14 -25 28 -3 41 -29 103 -192 13 -36
29 -77 34 -92 l11 -26 47 14 c91 27 128 68 126 139 -1 80 -44 135 -108 135
-34 0 -49 -6 -72 -30 l-30 -29 -22 60 c-13 32 -25 61 -29 63 -3 2 -24 -6 -46
-17z m214 -97 c21 -11 51 -79 51 -116 0 -32 -42 -74 -73 -74 -20 0 -29 9 -45
48 -33 79 -36 108 -13 131 23 23 52 27 80 11z"/>
<path d="M6403 2223 c-35 -7 -79 -57 -92 -106 -25 -87 31 -151 127 -145 61 4
60 21 -2 29 -57 6 -76 26 -76 81 0 21 1 38 3 38 2 0 37 -11 77 -25 85 -29 92
-25 88 44 -2 34 -9 48 -28 62 -28 21 -65 29 -97 22z"/>
<path d="M7170 2140 c0 -5 6 -10 14 -10 8 0 17 -4 21 -9 5 -9 -19 -237 -30
-287 -3 -12 -15 -25 -27 -28 -22 -7 -22 -7 -3 -16 11 -5 40 -9 64 -9 42 -1 43
0 28 17 -14 16 -15 27 -4 97 11 73 14 79 40 88 20 6 37 6 54 -2 25 -11 25 -14
19 -79 -9 -90 -16 -112 -32 -112 -22 0 -16 -17 9 -24 12 -3 40 -5 62 -5 37 0
38 1 17 12 -21 10 -23 16 -18 50 20 122 19 154 -3 176 -23 23 -64 27 -107 11
l-26 -10 7 75 7 75 -46 0 c-25 0 -46 -4 -46 -10z"/>
<path d="M8213 2113 c-26 -5 -31 -23 -8 -23 19 0 35 -40 35 -89 0 -45 -11 -51
-107 -51 l-63 0 0 64 c0 57 2 64 23 72 34 12 -52 17 -95 6 l-33 -9 28 -11 c25
-11 27 -15 28 -74 0 -35 4 -96 8 -137 7 -74 -1 -101 -32 -101 -7 0 -7 -3 -1
-9 11 -12 134 -2 134 10 0 5 -7 9 -15 9 -22 0 -35 33 -35 93 l0 55 76 7 c41 4
78 4 82 1 3 -4 8 -36 10 -72 4 -60 3 -66 -17 -71 -11 -3 -21 -9 -21 -14 0 -11
37 -10 100 0 44 7 44 8 19 19 -24 10 -27 16 -33 94 -3 46 -9 111 -12 146 -6
59 -5 64 15 69 60 16 -15 30 -86 16z"/>
<path d="M8725 2090 c-22 -10 -33 -19 -24 -19 25 -1 37 -22 53 -89 13 -58 13
-63 -6 -87 -24 -31 -72 -34 -87 -6 -6 10 -16 50 -22 89 -16 96 -18 99 -68 82
-46 -15 -53 -27 -19 -32 19 -3 26 -15 43 -85 24 -95 37 -113 77 -113 33 0 88
25 88 40 0 6 5 10 10 10 6 0 10 -7 10 -16 0 -11 5 -14 16 -10 9 3 27 9 40 12
26 7 33 24 10 24 -21 0 -23 5 -46 110 -11 52 -23 97 -27 101 -5 4 -26 -2 -48
-11z"/>
<path d="M6788 2082 c-64 -39 -82 -155 -33 -205 29 -29 77 -40 119 -29 49 13
44 32 -8 32 -58 0 -86 25 -86 75 0 49 24 103 52 116 33 15 76 -3 84 -36 8 -33
20 -32 33 5 9 28 8 31 -19 45 -38 20 -108 19 -142 -3z"/>
</g>
</svg>
