<?xml version="1.0" encoding="UTF-8"?>
<!DOCTYPE svg PUBLIC "-//W3C//DTD SVG 1.1//EN" "http://www.w3.org/Graphics/SVG/1.1/DTD/svg11.dtd">
<!-- Creator: CorelDRAW -->
<svg xmlns="http://www.w3.org/2000/svg" xml:space="preserve" width="204px" height="204px" style="shape-rendering:geometricPrecision; text-rendering:geometricPrecision; image-rendering:optimizeQuality; fill-rule:evenodd; clip-rule:evenodd"
viewBox="0 0 2048 2048"
 xmlns:xlink="http://www.w3.org/1999/xlink">
 <defs>
  <style type="text/css">
   <![CDATA[
    .fil22 {fill:none}
    .fil2 {fill:#202020}
    .fil8 {fill:#2D2D2D}
    .fil11 {fill:#373737}
    .fil16 {fill:#4C4C4C}
    .fil10 {fill:#525252}
    .fil3 {fill:#565656}
    .fil5 {fill:#717171}
    .fil7 {fill:gray}
    .fil12 {fill:#9B9B9C}
    .fil9 {fill:#A1A1A1}
    .fil1 {fill:#AAAAAA}
    .fil15 {fill:#C4C4C4}
    .fil6 {fill:#C5C5C5}
    .fil13 {fill:#CACBCB}
    .fil4 {fill:#D6D6D6}
    .fil17 {fill:#DDDDDE}
    .fil14 {fill:#F0F0F0}
    .fil0 {fill:#F2F2F2}
    .fil18 {fill:#414141;fill-rule:nonzero}
    .fil20 {fill:#5F5F5F;fill-rule:nonzero}
    .fil19 {fill:#6A6A6A;fill-rule:nonzero}
    .fil21 {fill:#7E7E7E;fill-rule:nonzero}
   ]]>
  </style>
 </defs>
 <g id="Layer_x0020_1">
  <metadata id="CorelCorpID_0Corel-Layer"/>
  <rect class="fil0" x="475.731" y="995.301" width="1096.54" height="796.702"/>
  <polygon class="fil1" points="279.167,1000.83 1024,256.001 1768.83,1000.83 "/>
  <g id="_313938776">
   <path id="_315981848" class="fil2" d="M734.852 1657.96c1.6937,0 6.73819,45.365 7.09371,48.6827 1.46693,13.7102 0.629528,21.9425 -10.2614,28.7055 -7.41024,4.60394 -17.4414,4.513 -26.6953,-2.22756 -5.74725,-4.18701 -9.65434,-10.011 -9.13938,-21.8232 0.766536,-17.4047 3.90709,-32.2961 5.79922,-51.1973l33.2032 -2.14016z"/>
   <path id="_315982064" class="fil2" d="M826.335 1657.96c1.69252,0 6.73701,45.365 7.09253,48.6827 1.46693,13.7102 0.630709,21.9425 -10.2602,28.7055 -7.41024,4.60394 -17.4414,4.513 -26.6953,-2.22756 -5.74725,-4.18701 -9.65434,-10.011 -9.13938,-21.8232 0.766536,-17.4047 3.90709,-32.2961 5.79804,-51.1973l33.2044 -2.14016z"/>
   <path id="_315982448" class="fil3" d="M748.529 1680.86l-58.865 3.97796 9.53268 -250.996 6.00709 -53.2843c5.80394,-8.88072 66.3626,5.12481 66.3626,5.12481l-23.0374 295.178z"/>
   <path id="_315982424" class="fil3" d="M781.255 1680.86l58.865 3.97796 -9.53268 -250.996 -6.00709 -53.2843c-5.80394,-8.88072 -66.613,5.12481 -66.613,5.12481l23.2878 295.178z"/>
   <path id="_315982376" class="fil4" d="M654.121 1356.21c3.71339,-12.0319 8.48741,-58.6678 12.0638,-78.5729l34.6996 6.23386c-1.45039,8.04686 -13.7421,45.6437 -16.8118,74.0989 -0.604725,5.61378 -1.11142,13.4646 -0.903544,14.3823l-29.0481 -16.1421z"/>
   <path id="_315982328" class="fil5" d="M698.271 1207.67c-12.7547,3.53386 -21.5882,12.0508 -24.6709,29.2512 -5.86418,32.7107 -7.97481,41.4626 -7.97481,41.4626l35.4166 6.77245 13.2461 -31.8673c8.47914,-20.3941 -0.285827,-49.9784 -16.0169,-45.6189z"/>
   <path id="_315981944" class="fil4" d="M647.973 1439.16c-1.06063,2.33268 -2.41299,33.8256 8.46615,43.6335 8.87835,14.211 13.1469,14.6445 12.887,10.8378 -0.259843,-3.80788 1.41732,0.927166 2.96811,-1.04055 0.897638,-1.1374 0.115748,-3.51969 -0.457087,-4.61103 -0.78189,-1.48819 1.53898,-0.0519685 2.3941,-0.901182 0.853938,-0.851575 0.966142,-3.05079 0.100394,-5.95985 -0.759449,-2.55355 -0.207874,-2.34095 0.442914,-1.83307 0.799607,0.614174 2.49095,-0.416929 1.43386,-5.59961 -1.52599,-7.47048 -5.51221,-11.1071 -5.89252,-16.2721 -1.07717,-14.5677 -6.91064,-19.8319 -11.7579,-25.2839 -4.8437,-5.45079 -10.585,7.02993 -10.585,7.02993z"/>
   <path id="_315982232" class="fil4" d="M682.945 1374.01c-4.52244,33.7276 -12.137,22.904 -16.6099,66.4394 -0.497244,4.8378 -3.01181,7.61575 -3.94961,8.03859 -6.30119,2.84055 -14.302,-6.39686 -14.302,-6.39686 -0.132284,-1.15394 -0.253937,-2.3374 -0.359055,-3.55158 -0.400394,-28.5756 1.95354,-49.0595 5.17323,-75.8245 4.82363,-40.1174 34.989,-7.65827 30.0473,11.2949z"/>
   <path id="_315982352" class="fil4" d="M872.268 1355.77c-3.71339,-12.0319 -7.48347,-59.2264 -11.0599,-79.1316l-34.6985 6.23504c1.44921,8.04568 13.7421,45.6426 16.8106,74.0989 0.605906,5.6126 1.1126,13.4634 0.903544,14.3811l28.0441 -15.5835z"/>
   <path id="_315982280" class="fil5" d="M829.124 1206.68c12.7536,3.53504 21.587,12.0508 24.6697,29.2512 5.86536,32.7107 7.97599,41.4626 7.97599,41.4626l-35.4166 6.77245 -13.2473 -31.8673c-8.47796,-20.3941 0.287008,-49.9784 16.0181,-45.6189z"/>
   <path id="_313939064" class="fil6" d="M764.012 1230.49c26.0681,0 14.0894,4.69843 27.1949,-12.3709 -17.8854,-2.74843 -5.90552,-11.1886 -9.22324,-21.6992 -3.37914,-10.6973 0,-24.7701 0,-24.7701l-35.9422 0c0,0 3.37677,14.0728 0,24.7701 -3.3189,10.5106 -4.3937,18.952 -22.2803,21.6992 13.1055,17.0681 14.1839,12.3709 40.2508,12.3709z"/>
   <path id="_313917512" class="fil7" d="M708.262 1204.98c14.7791,-3.15709 28.1457,-0.82441 37.5945,-6.28111 1.26142,-0.72756 9.98623,15.8091 17.9953,15.8091 7.57914,0 13.5685,-16.2638 21.6508,-15.3284 10.3642,1.19882 21.7299,3.16654 35.5937,5.8004 2.28543,0.433465 5.19095,2.11181 4.23071,4.22953 -9.71339,21.3945 0,41.3729 0,64.1847l0 107.81c0,2.32559 -1.90394,4.22953 -4.23071,4.22953l-112.834 0c-2.32677,0 -4.22953,-1.90276 -4.22953,-4.22953l0 -107.646c0,-19.0217 12.7228,-36.2422 0,-64.3489 -0.960237,-2.12008 1.95473,-3.7441 4.22953,-4.22953z"/>
   <path id="_313938440" class="fil6" d="M731.526 1130.07c0,0 -13.3642,-10.826 -19.2425,0 -5.87953,10.8248 16.5732,30.117 23.524,26.824 6.94725,-3.29173 -4.2815,-26.824 -4.2815,-26.824z"/>
   <path id="_313933952" class="fil6" d="M796.496 1130.07c0,0 13.3665,-10.826 19.2461,0 5.87953,10.8248 -16.5744,30.117 -23.524,26.824 -6.94725,-3.29173 4.27796,-26.824 4.27796,-26.824z"/>
   <path id="_313927256" class="fil4" d="M803.501 1105.79c-1.08425,-30.2681 -33.3603,-30.2953 -39.4878,-30.2953 -6.12874,0 -38.4059,0.0271654 -39.4926,30.2953 -1.08543,30.2681 0.544489,52.2367 7.6004,61.9973 6.9815,9.66497 23.6551,14.7839 31.8922,14.7839 8.23347,0 24.9071,-5.1189 31.8922,-14.7839 7.05119,-9.76064 8.68347,-31.7292 7.59568,-61.9973z"/>
   <path id="_313920512" class="fil5" d="M746.666 1194.06c0,0 5.67756,16.389 17.3469,20.3315 0,0 -12.0201,4.50237 -17.3469,16.8862 0,0 -15.0272,-24.2563 -13.8354,-28.7351 1.19291,-4.47756 7.33938,-7.98544 13.8354,-8.48268z"/>
   <path id="_313916024" class="fil5" d="M781.357 1194.06c0,0 -5.67638,16.389 -17.3433,20.3315 0,0 12.0189,4.50237 17.3433,16.8862 0,0 15.0272,-24.2563 13.8366,-28.7351 -1.19291,-4.47756 -7.33819,-7.98544 -13.8366,-8.48268z"/>
   <path id="_313910648" class="fil2" d="M731.404 1142.61c0,0 -3.05788,-22.9382 3.56929,-29.9481 0,0 27.7807,17.0764 42.6898,-2.16614 0,0 0.892914,-9.36615 6.43583,-9.74883 0,0 7.77402,3.12284 11.8512,23.1307l-0.127559 18.9874 7.32166 -14.1449c0,0 10.9028,-28.1634 -4.13504,-38.7414 0,0 0.765355,-20.8996 -41.7992,-18.7335 0,0 -26.5075,-1.52953 -34.4079,28.291 -3.47126,13.2638 -1.04646,23.2406 1.14567,28.6996l0.00590552 0.165354 0.297638 0.56693c1.10787,2.5878 2.07992,3.96733 2.08347,3.97205l5.0693 9.66969zm-5.0693 -9.66851l0 -0.0011811"/>
   <rect id="_313910768" class="fil8" x="703.206" y="1380.05" width="123.372" height="11.8364"/>
   <rect id="_313910576" class="fil9" x="756.414" y="1379.34" width="16.9556" height="13.2593"/>
   <path id="_313910528" class="fil4" d="M887.91 1435.71c1.33937,2.18386 6.55749,33.2717 -3.03189,44.3433 -7.063,15.1961 -11.2465,16.1516 -11.4567,12.3413 -0.211417,-3.81142 -1.29213,1.0937 -3.07323,-0.667323 -1.0311,-1.01811 -0.548032,-3.47835 -0.114567,-4.63229 0.592914,-1.57323 -1.53307,0.138189 -2.48504,-0.6 -0.95315,-0.740552 -1.33465,-2.90906 -0.833859,-5.90197 0.43937,-2.62795 -0.0814961,-2.34921 -0.664961,-1.76575 -0.718111,0.708662 -2.52402,-0.106299 -2.11181,-5.37874 0.594095,-7.60276 4.10315,-11.7024 3.84567,-16.8744 -0.724016,-14.589 4.41733,-20.5311 8.55709,-26.5382 4.13622,-6.00591 11.3693,5.67402 11.3693,5.67402z"/>
   <path id="_313910912" class="fil4" d="M845.188 1375.36c8.63859,32.915 14.863,21.2374 24.6591,63.8906 1.08898,4.74095 3.92599,7.18819 4.90867,7.49174 6.60237,2.04449 13.4067,-8.10827 13.4067,-8.10827 -0.011811,-1.16102 -0.0354331,-2.3504 -0.0814961,-3.56811 -3.11811,-28.4079 -7.97481,-48.4465 -14.4626,-74.6127 -9.72402,-39.2174 -35.6658,-3.2941 -28.4303,14.9067z"/>
   <path id="_313910792" class="fil4" d="M1330 1419.41c0,0 9.6945,23.4118 8.43072,53.7839 -1.26378,30.3673 -14.7543,28.2272 -15.1736,41.2926 -0.422835,13.0677 4.63465,45.104 2.52874,65.7603 -2.10827,20.6551 -14.3315,101.589 -12.2232,113.388 2.10591,11.8039 7.52008,24.4488 -0.243307,26.9799 -7.76694,2.52756 -25.4717,1.68662 -25.8921,-5.48032 -0.422835,-7.16575 8.85119,-23.1839 8.85119,-42.5752 0,-19.389 -4.21418,-88.5178 -3.37087,-110.439 0.842127,-21.9189 2.10709,-43.1386 0,-56.3457 -2.10709,-13.2036 -9.69686,-11.0185 -8.42953,-43.5 0,0 20.2288,-29.0103 45.5221,-42.8646z"/>
   <path id="_313910744" class="fil10" d="M1326 1583.02c-2.42008,19.6725 -5.6693,61.063 -8.67166,85.6229l-22.8166 0c-0.941339,-15.8315 -0.800788,-57.3615 -1.63465,-85.6229l33.1229 0z"/>
   <path id="_313911008" class="fil4" d="M1231.34 1419.41c0,0 -9.6945,23.4118 -8.4319,53.7839 1.2685,30.3673 14.7543,28.2272 15.1772,41.2926 0.421654,13.0677 -4.63701,45.104 -2.52992,65.7603 2.10709,20.6551 14.3327,101.589 12.2232,113.388 -2.10473,11.8039 -7.52127,24.4488 0.245669,26.9799 7.76575,2.52756 25.4681,1.68662 25.8898,-5.48032 0.424016,-7.16575 -8.85237,-23.1839 -8.85237,-42.5752 0,-19.389 4.21654,-88.5178 3.37205,-110.439 -0.844489,-21.9189 -2.10591,-43.1386 0,-56.3457 2.10827,-13.2036 9.69686,-11.0185 8.43072,-43.5 0,0 -20.2311,-29.0103 -45.5244,-42.8646z"/>
   <path id="_313910336" class="fil10" d="M1235.74 1583.02c2.42008,19.6725 5.67048,61.063 8.67166,85.6229l22.8177 0c0.941339,-15.8315 0.800788,-57.3615 1.63347,-85.6229l-33.1229 0z"/>
   <path id="_313910672" class="fil11" d="M1268.76 1223.86l22.4091 0c1.21063,7.47638 4.40433,15.9071 13.1185,20.804 18.0603,-5.09174 18.3874,-4.22481 18.3874,-4.22481 -3.6874,-13.6039 1.42323,-61.3087 1.42441,-61.3205 -12.4606,-7.98898 -81.2044,-6.75945 -88.2698,0 0.0011811,0.011811 5.11063,47.7166 1.42441,61.3205 0.240945,0.244488 27.4323,8.57127 31.5059,-16.5791z"/>
   <path id="_313910168" class="fil6" d="M1300.35 1269.78c5.46378,-10.1185 10.1374,-22.4587 8.70355,-37.226 0,0 -13.774,-9.16772 -13.6913,-26.6599 0,-0.0011811 -22.8874,2.52166 -30.1607,-0.817323 0.0011811,0 3.76536,23.9918 -10.1728,27.4772 -1.85669,15.3437 1.82953,30.665 10.7894,38.5441 6.5504,5.76142 29.4933,8.0067 34.5319,-1.31811z"/>
   <path id="_313909976" class="fil6" d="M1319.01 1166.51c0,0 2.46851,-5.27126 5.21457,-1.70079 2.74843,3.56929 2.20866,18.1205 -6.53268,18.1382 0,-0.0011811 1.27441,-12.9791 1.31811,-16.4374z"/>
   <path id="_313909952" class="fil6" d="M1240.65 1166.51c0,0 -2.47205,-5.27126 -5.21811,-1.70079 -2.74961,3.56929 -2.21103,18.1205 6.53268,18.1382 0,-0.0011811 -1.27795,-12.9791 -1.31457,-16.4374z"/>
   <path id="_313909856" class="fil4" d="M1319.88 1161.35c1.81299,-61.0016 -39.8752,-56.5831 -39.8882,-56.5808 -0.0141732,-0.00236221 -41.7,-4.42087 -39.887,56.5819 0,-0.0011811 -1.31811,21.0142 3.79134,28.3795 5.10827,7.36536 25.7929,25.6855 36.0945,25.6855 10.3028,-0.0011811 30.9874,-18.3201 36.0957,-25.6855 5.113,-7.36654 3.79252,-28.3795 3.7937,-28.3807z"/>
   <path id="_313909832" class="fil11" d="M1240.93 1167.1c0,0 2.8063,-12.2126 4.86733,-14.4331 0,0 52.0619,9.94017 55.4811,-23.8252 0,0 4.22481,17.3008 14.8902,25.7292 2.37638,1.87323 2.87481,12.7382 2.87481,12.7382 0,0 2.8063,-5.8193 5.17678,-2.49921 0,-0.0011811 5.55827,-15.1252 -4.16103,-36.0461 -9.71457,-20.9244 -22.6843,-27.1559 -37.904,-22.7669 0.0011811,0 -12.6047,-4.24843 -24.0862,3.35906 -11.4839,7.60749 -15.5091,15.711 -19.0429,25.3902 -3.53386,9.68032 -4.45748,30.9803 -2.90315,29.3858 2.13543,-2.19331 4.80709,2.96811 4.80709,2.96811z"/>
   <path id="_313910192" class="fil12" d="M1227.51 1406.22c-19.2437,41.7898 -26.0362,121.023 -25.5437,181.363l79.5225 0 79.5201 0c-0.692127,-60.3402 -7.48347,-139.573 -25.5402,-181.363l-107.959 0z" />
   <g>
    <g>
     <path id="_313909928" class="fil4" d="M1130.25 1427.21c5.66575,-6.78426 15.1323,-14.7213 19.8756,-21.613 4.74449,-6.89174 5.37166,-9.8504 5.37166,-9.8504l11.0492 10.9205c0,0 -7.1504,6.63071 -9.24804,13.8945 -2.09882,7.26024 -2.94095,11.4213 -9.13465,20.811 -0.689764,1.04291 -1.34055,2.03268 -2.53347,3.19843 0,0 -1.69725,2.08819 -3.26575,5.05512 -1.40551,2.66103 -4.37008,6.51142 -6.58819,5.59371 -2.22402,-0.916536 -0.659056,-5.1437 1.15039,-7.84725 2.14725,-3.20551 3.58229,-6.44292 3.58229,-6.44292 0,0 1.43622,-2.71181 1.9311,-3.2752 -1.25079,1.31221 -5.14843,5.36221 -6.97087,6.67914 -2.18622,1.5815 -4.67008,9.67205 -5.27599,11.2713 -0.602363,1.59803 1.38307,8.17087 -1.16693,9.2882 0,0 -3.0815,0.347244 -4.50237,-2.48622 0,-0.0011811 -4.29095,-9.62127 -2.6752,-13.3122 0.0011811,0 -0.881103,-1.82126 -0.861024,-2.78622 0.0188977,-0.969686 0.827953,-3.62717 0.827953,-3.62717 0.0011811,0 -1.05,-1.46811 -0.00708662,-3.68977 1.04173,-2.22756 2.76851,-4.99725 8.44135,-11.7815z"/>
     <path id="_313909904" class="fil13" d="M1128.46 1464.9l0.734646 -0.0425197c-0.296457,-0.265748 -1.18819,-0.68504 -2.34803,-4.42205 -1.37008,-4.42087 -1.12441,-7.99134 0.0507874,-10.7244 1.2378,-2.86772 3.5067,-10.0217 3.53032,-10.0949l-0.197244 -0.0637796c-0.0212599,0.0708662 -2.68347,7.07127 -3.90709,9.91418 -1.23071,2.86063 -1.25906,6.49961 -0.0838583,11.1213 0.840946,3.31181 1.65591,4.05 2.22047,4.31221z"/>
     <path id="_313909616" class="fil13" d="M1121.63 1448.61l0.216142 0.480709c0.0236221,-0.0708662 2.50158,-6.93308 3.84449,-10.2579 1.33347,-3.30236 2.17441,-4.65473 2.18268,-4.66654l-0.172441 -0.108662c-0.0354331,0.0543308 -1.03937,1.45276 -2.39646,4.81418 -1.35354,3.34961 -3.65315,9.66851 -3.67441,9.7382z"/>
     <path id="_313909808" class="fil13" d="M1121.58 1442.22l0.232677 0.459449c0.0153543,-0.0389764 1.52362,-3.89174 2.55236,-5.863l-0.124016 -0.0661418c-1.04055,1.98898 -2.64449,5.43308 -2.66103,5.46969z"/>
     <path id="_313909712" class="fil14" d="M1121.35 1441.04c-0.0177165,-0.564567 0.0874016,-1.25787 0.46063,-2.0504 0.00826772,-0.0177165 0.0165354,-0.034252 0.0248032,-0.0519685 -0.00826772,0.0177165 -0.0165354,0.034252 -0.0248032,0.0519685 -0.370866,0.788977 -0.477166,1.48347 -0.46063,2.0504zm36.854 -42.6237l-2.70473 -2.67166 2.70473 2.67166c0,0 -0.0011811,0 0,0z"/>
    </g>
    <path id="_313941896" class="fil12" d="M1168.9 1424.25l-30.6532 -16.6193c0,0 27.111,-53.5524 39.0355,-75.0898 34.5827,6.01063 32.0457,18.3721 14.5713,48.1689 -6.25985,10.6736 -15.0532,24.228 -22.9536,43.5402z"/>
   </g>
   <path id="_313941968" class="fil12" d="M1216.15 1246.02c-0.147638,0.0673229 -0.295276,0.137008 -0.438189,0.206693 -11.7047,5.76497 -30.5705,71.5146 -44.902,99.7761l-0.0283465 0.0543308 28.7587 16.5768 0.0614174 -0.119291 0.151181 -0.294095c11.0847,-21.6484 29.0906,-54.3024 33.2894,-65.1709l-3.64607 -28.3748 -13.2461 -22.6547z"/>
   <path id="_313942040" class="fil12" d="M1337.74 1415.12c-19.2449,-98.2784 -25.4091,-64.2804 11.9102,-167.152 -0.122835,-0.12874 -0.245669,-0.255118 -0.370866,-0.364961 -10.0158,-8.76733 -40.2296,-15.0862 -40.2296,-15.0862 -9.17009,19.7646 -22.5248,19.911 -27.5563,19.9134 -5.0315,-0.00236221 -19.5071,-2.32559 -26.4697,-19.9134 0.0011811,-0.0011811 -29.8122,6.02008 -40.5555,14.4602 -0.133465,0.103937 -0.263386,0.207874 -0.390945,0.312992 37.9748,101.042 29.9055,74.067 10.4504,171.177l113.212 -3.34725z"/>
   <path id="_313941056" class="fil3" d="M1313.35 1684.59c0,0 -0.728741,9.7441 1.17402,18.424 1.99961,9.11221 1.76811,12.5291 -6.99213,13.7788 -8.76024,1.25197 -18.4949,-0.555119 -18.6343,-4.03347 -0.138189,-3.47362 6.52914,-23.3847 6.72048,-31.4303 0,0 -2.12126,2.49331 -2.52638,7.91694 -0.407481,5.42363 -5.32796,15.848 -6.49725,26.7603 -1.03583,9.68741 -0.447638,15.5043 7.24843,20.2819 5.23701,3.25394 12.3225,3.18898 18.8634,-1.57323 4.06181,-2.95866 6.82087,-7.07363 6.45827,-15.4193 -0.369685,-8.34095 -3.94843,-23.7709 -3.99095,-28.3618 -0.0389764,-4.58859 0.682678,-10.5886 -1.32402,-13.2295 0.0011811,0 -0.869292,4.57678 -0.499607,6.88583z"/>
   <path id="_313941344" class="fil3" d="M1247.71 1684.59c0,0 0.72756,9.7441 -1.17874,18.424 -1.99961,9.11221 -1.76811,12.5291 6.99449,13.7788 8.75788,1.25197 18.4949,-0.555119 18.6343,-4.03347 0.137008,-3.47362 -6.5315,-23.3847 -6.7252,-31.4303 0.0011811,0 2.12599,2.49331 2.5311,7.91694 0.4063,5.42363 5.32914,15.848 6.49725,26.7603 1.03583,9.68741 0.445276,15.5043 -7.24961,20.2819 -5.23583,3.25394 -12.3236,3.18898 -18.8622,-1.57323 -4.06063,-2.95866 -6.82087,-7.07363 -6.45709,-15.4193 0.367323,-8.34095 3.94725,-23.7709 3.9874,-28.3618 0.0413386,-4.58859 -0.682678,-10.5886 1.32402,-13.2295 0,0 0.871654,4.57678 0.504331,6.88583z"/>
   <path id="_313941296" class="fil12" d="M1304.43 1241.26c-0.011811,0.162992 -0.0236221,0.325985 -0.0307087,0.484252 -0.434646,9.2941 18.5764,49.6241 33.1677,83.8701 5.87008,13.7776 6.9189,30.0296 12.0295,37.5485l0.0354331 0.0496063 32.2276 -22.1091c-3.63898,-19.2791 -15.4311,-74.3682 -32.1673,-93.0308l-45.2622 -6.8126z"/>
   <g>
    <path id="_313941536" class="fil4" d="M1396.42 1445.8c-3.22087,-8.23111 -9.67796,-18.763 -11.9894,-26.8028 -2.3126,-8.04213 -1.9689,-11.0469 -1.9689,-11.0469l-13.9429 6.84922c0,0 4.67599,8.55827 4.36063,16.1114 -0.314173,7.55197 -0.836221,11.7638 2.05748,22.6347 0.322441,1.20827 0.627166,2.35394 1.3878,3.83622 0,0 0.947245,2.51929 1.49291,5.83111 0.487796,2.96929 2.07756,7.56142 4.47166,7.39607 2.40118,-0.164173 2.25709,-4.67008 1.39961,-7.80709 -1.01929,-3.72166 -1.35236,-7.24725 -1.35236,-7.24725 0,0 -0.500788,-3.02717 -0.791339,-3.71929 0.768898,1.64291 3.18071,6.7193 4.49055,8.54646 1.57087,2.19331 1.35827,10.6547 1.42677,12.3638 0.0637796,1.70551 -3.90473,7.30867 -1.84134,9.17835 0,-0.0011811 2.81103,1.3063 5.05867,-0.929528 0,-0.0011811 7.12205,-7.76221 6.76064,-11.7756 0,0 1.41378,-1.44685 1.70197,-2.36811 0.28937,-0.925985 0.364961,-3.70158 0.364961,-3.70158 0,-0.0011811 1.46102,-1.05945 1.17756,-3.49843 -0.279921,-2.44252 -1.03819,-5.61615 -4.26496,-13.8508z"/>
    <path id="_313941608" class="fil13" d="M1386.16 1482.11l-0.682678 -0.272835c0.364961,-0.159449 1.3441,-0.272835 3.62953,-3.44882 2.70236,-3.75709 3.60236,-7.22245 3.35433,-10.1858 -0.262205,-3.11339 -0.144095,-10.6181 -0.144095,-10.6937l0.209055 0.00236221c-0.00354331,0.0744095 0.3,7.5567 0.558662,10.6406 0.258662,3.10512 -0.869292,6.56339 -3.45,10.5732 -1.84843,2.87362 -2.85591,3.31536 -3.47481,3.38504z"/>
    <path id="_313941560" class="fil13" d="M1397.8 1468.83l-0.357874 0.387402c0,-0.0755906 -0.172441,-7.3689 -0.390945,-10.9476 -0.216142,-3.55512 -0.584646,-5.10355 -0.588189,-5.11772l0.197244 -0.0484252c0.0165354,0.0637796 0.52441,1.70669 0.745276,5.32678 0.219685,3.60473 0.39567,10.3276 0.394488,10.3996z"/>
    <path id="_313941632" class="fil13" d="M1399.88 1462.78l-0.366142 0.361418c-0.00236221,-0.0425197 -0.210236,-4.1752 -0.559843,-6.36969l0.138189 -0.0236221c0.355512,2.21693 0.783071,5.99174 0.787796,6.03189z"/>
    <path id="_313941272" class="fil14" d="M1400.47 1461.74c0.196063,-0.529134 0.316536,-1.22008 0.21378,-2.09055 -0.0011811,-0.0188977 -0.00354331,-0.0377953 -0.00590552,-0.056693 0.00236221,0.0188977 0.00472441,0.0377953 0.00590552,0.056693 0.101575,0.86693 -0.0177165,1.55906 -0.21378,2.09173zm-21.4217 -52.1162l3.41221 -1.67599 -3.41221 1.67599c0,0 0,0 0,0z"/>
   </g>
   <path id="_313941368" class="fil12" d="M1360.7 1430.73l34.3418 -6.03308c0,0 -8.95867,-63.2575 -13.4315,-87.4666 -39.2563,-14.7744 -43.5012,-4.57205 -28.8603,44.9256 3.50906,11.8654 6.58583,27.7536 7.95001,48.5741z"/>
   <path id="_313941008" class="fil4" d="M921.827 1519.84c6.97678,-3.10984 30.1784,-19.5543 40.6973,-25.8709l11.0102 18.3343c-4.25315,2.55118 -26.2571,11.6528 -40.4752,21.6154 -2.80512,1.96536 -4.50355,-0.700394 -4.83898,-0.238583l-3.29764 0.588189 -3.09567 -14.4284z"/>
   <path id="_313940552" class="fil4" d="M898.096 1488.84c-0.415748,-1.49764 -12.0579,-16.6677 -20.9374,-16.989 -9.66615,-3.14764 -11.8193,-1.68662 -10.2154,-0.0177165 1.60512,1.67008 -1.01929,0.121654 -0.97441,1.64055 0.0259843,0.878741 1.31693,1.68189 2.00906,1.96654 0.943702,0.386221 -0.69567,0.622441 -0.761812,1.35118 -0.0649607,0.728741 0.739371,1.79528 2.27599,2.80984 1.34764,0.891733 1.00866,1.00748 0.507874,1.0252 -0.61063,0.0259843 -0.99567,1.16457 1.51536,3.16181 3.62008,2.87953 6.89056,3.01772 9.08032,5.27008 6.17599,6.35434 10.9394,6.52914 15.3177,7.1752 4.37599,0.647245 2.18268,-7.39371 2.18268,-7.39371z"/>
   <path id="_313940312" class="fil4" d="M912.727 1529.15c-14.1744,-14.5606 -7.90158,-11.0799 -23.3445,-34.3642 -1.6311,-2.45906 -2.22874,-4.44095 -2.04213,-5.03622 1.26142,-3.99922 8.6752,-3.88583 8.6752,-3.88583 0.574016,0.407481 1.15984,0.830316 1.75158,1.27323 13.089,11.3681 21.4063,20.7106 32.2134,32.9835 16.2,18.3957 -10.6748,18.9248 -17.2536,9.02953z"/>
   <path id="_313940456" class="fil4" d="M1095.57 1519.84c-6.97678,-3.10984 -30.1796,-19.5543 -40.6973,-25.8709l-11.0102 18.3343c4.25315,2.55118 26.2559,11.6528 40.4752,21.6154 2.80394,1.96536 4.50355,-0.700394 4.83898,-0.238583l3.29764 0.588189 3.09567 -14.4284z"/>
   <path id="_313940696" class="fil4" d="M1105.84 1481.45c-0.0590552,-1.55315 6.42166,-19.5449 14.7827,-22.5496 8.25237,-5.93741 10.748,-5.19922 9.72757,-3.12166 -1.02165,2.07756 1.00866,-0.194882 1.42677,1.26614 0.242126,0.844489 -0.744095,2.00197 -1.31693,2.48386 -0.780709,0.655512 0.852757,0.382677 1.13622,1.05591 0.283465,0.67441 -0.158268,1.93465 -1.31339,3.36851 -1.01339,1.26024 -0.654331,1.26614 -0.172441,1.1315 0.590552,-0.161811 1.30276,0.806694 -0.48189,3.47244 -2.57362,3.84331 -5.64804,4.9689 -7.04882,7.78111 -3.95315,7.92993 -8.4378,9.5445 -12.4122,11.491 -3.97323,1.94764 -4.32756,-6.37914 -4.32756,-6.37914z"/>
   <path id="_313940672" class="fil4" d="M1104.15 1524.3c9.07796,-18.1807 4.15985,-12.9579 11.7945,-39.8351 0.806694,-2.83819 0.773623,-4.90748 0.414567,-5.41772 -2.41772,-3.42638 -9.44528,-1.06417 -9.44528,-1.06417 -0.424016,0.562205 -0.852757,1.14331 -1.2815,1.74449 -9.01536,14.8087 -14.0988,26.2382 -20.6646,41.2146 -9.84213,22.4492 15.9225,14.7851 19.1823,3.35788z"/>
   <polygon id="_313940720" class="fil15" points="1022.14,1475.34 992.088,1475.34 992.088,1483.13 969.72,1497.58 1009.52,1523.07 1044.51,1497.58 1022.14,1483.59 "/>
   <path id="_313940888" class="fil16" d="M987.571 1696.56c0.915355,0 3.64607,24.5492 3.8374,26.3445 0.794883,7.41969 0.341339,11.8748 -5.55237,15.5339 -4.00985,2.49213 -9.4382,2.44252 -14.4461,-1.20473 -3.10984,-2.26536 -5.22402,-5.41772 -4.94646,-11.8099 0.415748,-9.41812 2.11536,-17.4768 3.13819,-27.7051l17.9693 -1.15866z"/>
   <path id="_313940336" class="fil4" d="M989.221 1707.21c-6.39331,5.93504 -13.3795,6.52914 -21.0154,1.28622l-0.369685 -78.0886 26.8831 0 -5.49804 76.8024z"/>
   <path id="_313940384" class="fil16" d="M1027.68 1696.56c-0.915355,0 -3.64607,24.5492 -3.83859,26.3445 -0.793701,7.41969 -0.341339,11.8748 5.55355,15.5339 4.00985,2.49213 9.4382,2.44252 14.4461,-1.20473 3.10984,-2.26536 5.22402,-5.41772 4.94528,-11.8099 -0.414567,-9.41812 -2.11417,-17.4768 -3.13701,-27.7051l-17.9693 -1.15866z"/>
   <path id="_313939496" class="fil4" d="M1026.03 1707.21c6.39331,5.93504 13.3795,6.52914 21.0154,1.28622l0.369685 -78.0886 -26.8831 0 5.49804 76.8024z"/>
   <path id="_313940192" class="fil4" d="M1051.61 1441.09c-2.41536,24.2091 -23.9953,41.8713 -48.2055,39.4595 -24.2079,-2.41418 -41.8748,-23.9977 -39.4583,-48.2067 2.4189,-24.2079 23.9965,-41.8713 48.2044,-39.4559 24.2079,2.41536 41.8748,23.9965 39.4595,48.2032z"/>
   <path id="_313940144" class="fil17" d="M971.82 1432.27c-0.0248032,4.82953 -3.9567,8.72481 -8.78505,8.69764 -4.82953,-0.022441 -8.72363,-3.95551 -8.70001,-8.7815 0.0248032,-4.83071 3.95906,-8.72481 8.78741,-8.70237 4.82717,0.0236221 8.72363,3.95788 8.69764,8.78623z"/>
   <path id="_313939832" class="fil17" d="M1061.22 1441.25c-0.0248032,4.82835 -3.95788,8.72481 -8.78623,8.70355 -4.82953,-0.0283465 -8.72481,-3.9626 -8.70119,-8.78977 0.0259843,-4.82717 3.95906,-8.72245 8.78741,-8.69883 4.82835,0.0259843 8.72363,3.96024 8.70001,8.78505z"/>
   <path id="_313940048" class="fil18" d="M999.474 1414.46c3.22559,4.53544 20.9433,19.0807 22.7977,15.7051 0.0188977,-0.0259843 -1.40551,-9.52324 -1.30394,-11.3752 6.36142,8.58426 15.1205,15.2091 25.2662,19.0595 0.0897638,0.034252 0.180709,0.0649607 0.271654,0.0944883l-0.0106299 0.0295276 3.09685 1.10787 0 0.281103c1.47756,-4.28859 2.27835,-8.87953 2.27835,-13.6524 0,-23.7083 -19.741,-42.9272 -44.0941,-42.9272 -24.3532,0 -44.0941,25.7563 -44.0941,42.9272 0,5.35748 0.696851,9.69922 1.85551,13.3642 14.837,-6.17245 24.0095,-8.82875 33.9366,-24.6142z"/>
   <rect id="_313939640" class="fil8" x="967.822" y="1571.81" width="79.8159" height="7.65744"/>
   <rect id="_313939616" class="fil9" x="1002.24" y="1571.35" width="10.9691" height="8.57804"/>
   <polygon id="_313939712" class="fil3" points="1050.97,1643.5 1047.46,1579.47 1013.19,1578.76 1013.22,1578.54 1007.64,1578.65 1002.07,1578.54 1002.1,1578.76 967.822,1579.47 964.32,1643.5 998.382,1643.5 1007.64,1611.25 1016.91,1643.5 "/>
   <path id="_313939448" class="fil19" d="M964.954 1489.14c5.95512,-4.93465 21.0673,24.3213 19.6831,25.2874 -1.49646,-1.38307 -8.67757,3.79488 -25.6477,8.563l-10.8024 -21.9815c5.60788,-3.59055 15.2681,-10.5484 16.7669,-11.8689z"/>
   <path id="_313938920" class="fil20" d="M955.843 1524.2c0.402756,1.01929 1.55551,1.51772 2.57481,1.11614 1.01811,-0.402756 1.5189,-1.55551 1.11496,-2.57362l-8.57245 -21.6579c-0.402756,-1.01929 -1.55551,-1.5189 -2.57362,-1.11614 -1.01929,0.402756 -1.5189,1.55551 -1.11614,2.57362l8.57245 21.6579z"/>
   <path id="_313938896" class="fil19" d="M1052.45 1489.14c-5.9563,-4.93465 -21.0673,24.3213 -19.6831,25.2874 1.49646,-1.38307 8.67757,3.79488 25.6477,8.563l10.8024 -21.9815c-5.60788,-3.59055 -15.2681,-10.5484 -16.7669,-11.8689z"/>
   <path id="_313938872" class="fil20" d="M1061.56 1524.2c-0.401575,1.01929 -1.55433,1.51772 -2.57362,1.11614 -1.01929,-0.402756 -1.5189,-1.55551 -1.11614,-2.57362l8.57363 -21.6579c0.402756,-1.01929 1.55551,-1.5189 2.57362,-1.11614 1.01929,0.402756 1.5189,1.55551 1.11614,2.57362l-8.57363 21.6579z"/>
   <path id="_313939016" class="fil21" d="M1049.5 1571.75c-1.54016,-5.70591 -0.263386,-43.754 -1.26142,-53.5453 -3.21733,-8.9315 -1.18465,-21.2504 4.28504,-29.0693 -4.26851,-2.71654 -12.8268,-5.70355 -20.9197,-6.61536 -4.5189,5.73544 -13.8484,7.89331 -22.9016,7.48347 -9.05316,0.409843 -18.3839,-1.74803 -22.9016,-7.48347 -8.0941,0.911812 -16.6524,3.89882 -20.9197,6.61536 5.46851,7.8189 7.50237,20.1378 4.28504,29.0693 -0.998032,9.79135 0.27874,47.8394 -1.26142,53.5453l40.7977 0 40.7977 0z"/>
  </g>
 </g>
 <rect class="fil22" width="204" height="204"/>
</svg>
